PathFileType	4	(X/Y/Z)	E:\MAC3D_DATA\2020_06_02_vinay\TPose1.trc																																																																
DataRate	CameraRate	NumFrames	NumMarkers	Units	OrigDataRate	OrigDataStartFrame	OrigNumFrames																																																												
1000	200	14	22	mm	200	436	498																																																												
Frame#	Time	RAsis			LAsis			RPsi			LPsi			RThigh1			RThigh2			RThigh3			RKneeOut			RKneeIn			LThigh1			LThigh2			LThigh3			LKneeOut			LKneeIn			MidAsis			MidPsi			MidPelvis			RHJC			LHJC			MidHJC			RKJC			LKJC		
		X1	Y1	Z1	X2	Y2	Z2	X3	Y3	Z3	X4	Y4	Z4	X5	Y5	Z5	X6	Y6	Z6	X7	Y7	Z7	X8	Y8	Z8	X9	Y9	Z9	X10	Y10	Z10	X11	Y11	Z11	X12	Y12	Z12	X13	Y13	Z13	X14	Y14	Z14	X15	Y15	Z15	X16	Y16	Z16	X17	Y17	Z17	X18	Y18	Z18	X19	Y19	Z19	X20	Y20	Z20	X21	Y21	Z21	X22	Y22	Z22
																																																																			
436	2.175	79.3902	1581.83	196.715	78.0383	1581.36	-77.872	201.342	1530.63	59.1527	54.6091	1601.53	56.281	1.96455	1486.34	63.8456	238.42	1026.75	193.206	248.645	1032.32	-48.8071	50.2066	1068.69	115.394	50.224	1065.55	20.41	171.088	765.953	268.807	101.882	707.985	276.883	186.241	709.254	246.859	107.723	541.822	271.922	97.8496	525.582	160.331	191.86	778.438	-135.32	129.471	785.964	-147.905	142.613	714.936	-149.124	128.131	544.184	-145.537	106.624	526.37	-33.3067	21.5612	348.227	301.198	-0.963804	287.496	274.988	71.8137	316.205	292.137
437	2.18	79.3905	1581.8	196.731	78.0773	1581.56	-77.827	201.33	1530.62	59.1841	54.588	1601.52	56.3277	1.96714	1486.22	63.979	238.482	1026.77	193.203	248.714	1032.31	-48.8212	50.2235	1068.66	115.4	50.255	1065.55	20.4344	171.162	765.97	268.819	101.956	707.991	276.886	186.269	709.237	246.834	107.741	541.832	271.931	97.9776	525.664	160.333	191.878	778.428	-135.297	129.496	785.965	-147.89	142.572	714.93	-149.045	128.137	544.158	-145.526	106.637	526.37	-33.3097	21.5557	348.256	301.252	-0.974039	287.481	274.978	71.837	316.197	292.156
438	2.185	79.3961	1581.79	196.744	78.0054	1581.34	-77.8332	201.311	1530.58	59.1714	54.6128	1601.52	56.3316	2.00629	1486.32	63.8909	238.498	1026.75	193.196	248.676	1032.32	-48.8196	50.259	1068.65	115.42	50.238	1065.53	20.4493	171.258	766.001	269.01	101.99	707.981	276.894	186.34	709.237	246.786	107.776	541.847	271.939	97.9507	525.644	160.329	191.886	778.407	-135.316	129.529	785.96	-147.909	142.586	714.93	-149.03	128.174	544.175	-145.541	106.673	526.373	-33.2876	21.5783	348.245	301.233	-1.23644	287.485	274.97	71.8745	316.171	292.146
439	2.19	79.3888	1581.77	196.76	78.0004	1581.32	-77.8133	201.3	1530.57	59.2429	54.5927	1601.5	56.3703	1.96614	1486.29	63.9149	238.529	1026.76	193.214	248.724	1032.34	-48.8136	50.3134	1068.66	115.457	50.2545	1065.54	20.4387	171.353	765.992	269.005	102.06	707.971	276.888	186.406	709.253	246.735	107.832	541.842	271.937	97.9697	525.66	160.326	191.923	778.396	-135.329	129.531	785.964	-147.891	142.645	714.928	-149.034	128.179	544.176	-145.522	106.71	526.384	-33.2995	21.6151	348.264	301.236	-0.9177	287.49	274.975	71.8544	316.217	292.157
440	2.195	79.3971	1581.76	196.77	78.0289	1581.53	-77.7402	201.299	1530.54	59.2207	54.5703	1601.49	56.3921	1.96784	1486.19	64.0287	238.587	1026.77	193.192	248.73	1032.33	-48.8156	50.3346	1068.64	115.436	50.2918	1065.52	20.4433	171.41	765.948	268.826	102.11	707.979	276.9	186.423	709.263	246.703	107.86	541.84	271.904	97.9505	525.669	160.325	191.947	778.41	-135.339	129.577	785.958	-147.913	142.653	714.921	-149.048	128.214	544.164	-145.536	106.682	526.384	-33.2809	21.6324	348.247	301.237	-1.23567	287.487	274.966	71.8872	316.193	292.145
441	2.2	79.3974	1581.74	196.804	77.9998	1581.52	-77.747	201.268	1530.56	59.2626	54.5484	1601.49	56.4348	1.96565	1486.3	63.9558	238.605	1026.76	193.198	248.775	1032.34	-48.8462	50.348	1068.63	115.447	50.2994	1065.51	20.4642	171.479	765.972	268.954	102.179	707.953	276.899	186.481	709.255	246.669	107.865	541.86	271.918	98.0525	525.711	160.274	191.972	778.43	-135.325	129.59	785.983	-147.906	142.677	714.934	-149.047	128.229	544.146	-145.536	106.751	526.386	-33.3037	21.6552	348.27	301.251	-0.908439	287.549	274.99	71.919	316.179	292.153
442	2.205	79.3736	1581.72	196.796	77.9949	1581.53	-77.7072	201.241	1530.51	59.2841	54.5532	1601.48	56.4298	1.92254	1486.16	64.0989	238.631	1026.77	193.195	248.798	1032.36	-48.8562	50.3655	1068.63	115.461	50.3321	1065.5	20.4619	171.522	765.914	268.747	102.226	707.948	276.895	186.539	709.259	246.628	107.912	541.856	271.94	98.0235	525.691	160.321	192.009	778.423	-135.319	129.607	785.977	-147.923	142.7	714.943	-149.049	128.256	544.183	-145.527	106.746	526.386	-33.3011	21.6837	348.24	301.226	-1.17116	287.488	274.968	71.9303	316.171	292.127
443	2.21	79.3689	1581.7	196.83	77.968	1581.49	-77.7003	201.24	1530.53	59.3192	54.53	1601.47	56.4933	1.92756	1486.12	64.1059	238.678	1026.76	193.192	248.784	1032.32	-48.847	50.4295	1068.63	115.478	50.3663	1065.49	20.4485	171.616	765.962	268.917	102.253	707.976	276.91	186.58	709.253	246.553	107.876	541.752	271.596	97.9567	525.696	160.302	192.023	778.427	-135.325	129.617	785.959	-147.904	142.726	714.928	-149.057	128.25	544.169	-145.521	106.742	526.373	-33.2821	21.7288	348.243	301.229	-1.15284	287.482	274.943	71.9472	316.197	292.127
444	2.215	79.3515	1581.69	196.862	77.9588	1581.49	-77.6964	201.238	1530.53	59.3415	54.5352	1601.46	56.5057	1.92554	1486.12	64.1229	238.726	1026.76	193.2	248.833	1032.34	-48.8669	50.4472	1068.61	115.498	50.3682	1065.48	20.4915	171.675	765.937	268.852	102.324	707.963	276.906	186.654	709.243	246.533	107.981	541.853	271.942	98.0138	525.727	160.278	192.034	778.434	-135.34	129.662	785.967	-147.917	142.722	714.929	-149.037	128.293	544.157	-145.518	106.776	526.396	-33.2846	21.7365	348.245	301.224	-1.15995	287.505	274.98	71.9809	316.197	292.127
445	2.22	79.3193	1581.69	196.905	77.9119	1581.46	-77.64	201.199	1530.5	59.3738	54.5089	1601.46	56.5336	1.90983	1486.11	64.1713	238.753	1026.75	193.212	248.862	1032.33	-48.8771	50.4898	1068.57	115.501	50.3891	1065.49	20.5321	171.711	765.914	268.825	102.372	707.952	276.891	186.692	709.236	246.477	107.997	541.852	271.917	98.0594	525.749	160.264	192.103	778.447	-135.348	129.686	785.964	-147.912	142.758	714.94	-149.047	128.325	544.152	-145.513	106.753	526.386	-33.2874	21.7382	348.267	301.217	-1.17804	287.504	274.975	71.9553	316.159	292.113
446	2.225	79.3158	1581.64	196.897	77.9041	1581.45	-77.6181	201.171	1530.5	59.3785	54.4883	1601.44	56.5772	1.86684	1486.09	64.21	238.79	1026.74	193.19	248.893	1032.36	-48.8636	50.4575	1068.59	115.514	50.4188	1065.49	20.5372	171.746	765.878	268.642	102.414	707.956	276.917	186.736	709.213	246.463	108.013	541.886	271.927	98.0387	525.741	160.282	192.097	778.422	-135.324	129.718	785.957	-147.926	142.795	714.922	-149.006	128.333	544.147	-145.5	106.818	526.372	-33.2623	21.7473	348.238	301.229	-1.14157	287.518	274.987	71.9799	316.16	292.12
447	2.23	79.285	1581.63	196.936	77.8907	1581.46	-77.5929	201.171	1530.49	59.432	54.4826	1601.45	56.6003	1.8	1486.07	64.2367	238.837	1026.75	193.189	248.891	1032.34	-48.8579	50.5503	1068.58	115.55	50.4283	1065.45	20.5543	171.764	765.861	268.618	102.468	707.939	276.877	186.79	709.217	246.429	108.045	541.855	271.922	98.0471	525.753	160.273	192.117	778.414	-135.332	129.755	785.96	-147.908	142.814	714.912	-149.028	128.36	544.165	-145.477	106.807	526.402	-33.25	21.752	348.266	301.246	-1.15521	287.489	274.983	71.972	316.182	292.144
448	2.235	79.2813	1581.59	196.953	77.8603	1581.45	-77.5486	201.117	1530.48	59.4385	54.4501	1601.42	56.6516	1.8615	1486.05	64.263	238.878	1026.76	193.206	248.907	1032.33	-48.8573	50.5958	1068.54	115.552	50.4562	1065.45	20.5632	171.826	765.885	268.76	102.554	707.968	276.906	186.814	709.207	246.403	108.077	541.856	271.959	98.1415	525.78	160.295	192.145	778.413	-135.32	129.739	785.949	-147.876	142.829	714.917	-149.006	128.38	544.129	-145.465	106.815	526.341	-33.2667	21.7862	348.255	301.242	-1.14218	287.519	275.006	72.0002	316.174	292.124
449	2.24	79.2707	1581.59	196.951	77.8461	1581.43	-77.5553	201.14	1530.47	59.4706	54.4401	1601.41	56.6552	1.88581	1486.01	64.2949	238.92	1026.74	193.2	248.962	1032.35	-48.9015	50.614	1068.54	115.591	50.4716	1065.44	20.5802	171.85	765.859	268.567	102.59	707.938	276.88	186.879	709.215	246.371	108.068	541.881	271.966	98.1035	525.814	160.285	192.177	778.423	-135.322	129.789	785.956	-147.885	142.861	714.928	-149.013	128.422	544.138	-145.459	106.865	526.373	-33.2445	21.8065	348.243	301.24	-1.09922	287.48	274.968	71.9866	316.165	292.131
